<svg xmlns="http://www.w3.org/2000/svg" data-name="Layer 1" viewBox="0 0 100 125" x="0px" y="0px"><title>Media Player</title><path d="M48.93,35.5a10.66,10.66,0,1,0,0,21.32,10.61,10.61,0,0,0,7.62-3.22,10.65,10.65,0,0,0-7.62-18.1Z"/><path d="M46.16,8.14a42,42,0,1,0,45.7,45.7A42.12,42.12,0,0,0,46.16,8.14ZM66.07,69.19a2.66,2.66,0,0,1-3.73-.34l-6.8-8.17a15.7,15.7,0,0,1-6.61,1.44,16,16,0,1,1,11-4.44l6.46,7.78A2.64,2.64,0,0,1,66.07,69.19Z"/><text x="0" y="115" fill="#000000" font-size="5px" font-weight="bold" font-family="'Helvetica Neue', Helvetica, Arial-Unicode, Arial, Sans-serif">Created by Rizky Mapat Waluya</text><text x="0" y="120" fill="#000000" font-size="5px" font-weight="bold" font-family="'Helvetica Neue', Helvetica, Arial-Unicode, Arial, Sans-serif">from the Noun Project</text></svg>